<svg xmlns="http://www.w3.org/2000/svg" xmlns:xlink="http://www.w3.org/1999/xlink" width="500" zoomAndPan="magnify" viewBox="0 0 375 374.999991" height="500" preserveAspectRatio="xMidYMid meet" version="1.0"><defs><g/><clipPath id="38be3968a8"><path d="M 286 37.5 L 346.625 37.5 L 346.625 144 L 286 144 Z M 286 37.5 " clip-rule="nonzero"/></clipPath><clipPath id="40a893ed51"><path d="M 28.625 197 L 89 197 L 89 303.75 L 28.625 303.75 Z M 28.625 197 " clip-rule="nonzero"/></clipPath><clipPath id="40c297ec01"><path d="M 28.625 37.5 L 251 37.5 L 251 258 L 28.625 258 Z M 28.625 37.5 " clip-rule="nonzero"/></clipPath><clipPath id="2c2bc4f0b7"><path d="M 124 83 L 346.625 83 L 346.625 303.75 L 124 303.75 Z M 124 83 " clip-rule="nonzero"/></clipPath></defs><g clip-path="url(#38be3968a8)"><path fill="#000000" d="M 286.742188 37.5 L 286.742188 108.8125 L 346.566406 143.328125 L 346.566406 37.5 Z M 286.742188 37.5 " fill-opacity="1" fill-rule="evenodd"/></g><g clip-path="url(#40a893ed51)"><path fill="#000000" d="M 28.679688 303.75 L 88.445312 303.75 L 88.445312 232.4375 L 28.679688 197.921875 Z M 28.679688 303.75 " fill-opacity="1" fill-rule="evenodd"/></g><g clip-path="url(#40c297ec01)"><path fill="#000000" d="M 88.445312 37.5 L 28.679688 37.5 L 28.679688 164.171875 L 88.445312 198.6875 L 190.550781 257.605469 L 250.3125 223.15625 L 88.445312 129.660156 Z M 88.445312 37.5 " fill-opacity="1" fill-rule="evenodd"/></g><g clip-path="url(#2c2bc4f0b7)"><path fill="#000000" d="M 184.699219 83.707031 L 124.9375 118.15625 L 286.742188 211.589844 L 286.742188 303.75 L 346.566406 303.75 L 346.566406 177.078125 L 286.742188 142.5625 Z M 184.699219 83.707031 " fill-opacity="1" fill-rule="evenodd"/></g><g fill="#000000" fill-opacity="1"><g transform="translate(110.986828, 329.19997)"><g><path d="M 12.757812 0 L 12.757812 -15.726562 L 9.613281 -15.726562 L 9.613281 -9.4375 L 4.90625 -9.4375 L 4.90625 -15.726562 L 1.761719 -15.726562 L 1.761719 0 L 4.90625 0 L 4.90625 -6.292969 L 9.613281 -6.292969 L 9.613281 0 Z M 12.757812 0 "/></g></g></g><g fill="#000000" fill-opacity="1"><g transform="translate(140.706166, 329.19997)"><g><path d="M 4.90625 0 L 4.90625 -15.726562 L 1.761719 -15.726562 L 1.761719 0 Z M 4.90625 0 "/></g></g></g><g fill="#000000" fill-opacity="1"><g transform="translate(162.5729, 329.19997)"><g><path d="M 1.761719 0 L 4.90625 0 L 4.90625 -6.160156 L 9.085938 0 L 12.980469 0 L 7.433594 -7.964844 L 12.539062 -15.726562 L 8.863281 -15.726562 L 4.90625 -9.457031 L 4.90625 -15.726562 L 1.761719 -15.726562 Z M 1.761719 0 "/></g></g></g><g fill="#000000" fill-opacity="1"><g transform="translate(191.038457, 329.19997)"><g><path d="M 0.351562 0 L 3.914062 0 L 4.53125 -1.695312 L 9.746094 -1.695312 L 10.382812 0 L 13.925781 0 L 7.304688 -16.300781 L 6.972656 -16.300781 Z M 5.675781 -4.640625 L 7.148438 -8.734375 L 8.578125 -4.640625 Z M 5.675781 -4.640625 "/></g></g></g><g fill="#000000" fill-opacity="1"><g transform="translate(220.58183, 329.19997)"><g><path d="M 9.589844 0 L 13.15625 0 L 9.503906 -6.488281 C 14.121094 -7.832031 13.574219 -15.726562 7.964844 -15.726562 L 1.761719 -15.726562 L 1.761719 0 L 4.90625 0 L 4.90625 -6.003906 L 6.421875 -6.003906 Z M 4.90625 -9.0625 L 4.90625 -12.582031 L 7.675781 -12.582031 C 9.8125 -12.582031 9.8125 -9.0625 7.675781 -9.0625 Z M 4.90625 -9.0625 "/></g></g></g><g fill="#000000" fill-opacity="1"><g transform="translate(249.245365, 329.19997)"><g><path d="M 13.042969 -5.476562 L 13.042969 -15.726562 L 9.921875 -15.726562 L 9.921875 -5.5 C 9.921875 -2.199219 4.816406 -2.199219 4.816406 -5.5 L 4.816406 -15.726562 L 1.671875 -15.726562 L 1.671875 -5.476562 C 1.671875 2 13.042969 2 13.042969 -5.476562 Z M 13.042969 -5.476562 "/></g></g></g></svg>